<svg xmlns="http://www.w3.org/2000/svg" viewBox="0 0 64 64" fill="none">
  <rect width="64" height="64" rx="14" fill="#0B0A0F"/>
  <rect x="4" y="4" width="56" height="56" rx="12" fill="#3D1A2E"/>
  <path d="M32 12c-2.5 6-8 10-14 11 4 2 7 6 8 11-1-1-3-2-5-2 3 5 8 9 14 10 6-1 11-5 14-10-2 0-4 1-5 2 1-5 4-9 8-11-6-1-11.5-5-14-11z" fill="#F07A3A"/>
  <circle cx="26" cy="36" r="2.5" fill="#E8DFD0"/>
  <circle cx="38" cy="36" r="2.5" fill="#E8DFD0"/>
  <path d="M27 43c2 2 8 2 10 0" stroke="#E8DFD0" stroke-width="2" stroke-linecap="round"/>
</svg>
